/* XPM */
static const char * atrneartool_xpm[] = {
"22 22 5 1",
" 	c None",
".	c #FF0000",
"+	c #FFFFFF",
"@	c #3F3F3F",
"#	c #000000",
"                      ",
"                      ",
"  ...                 ",
"  ...++ ...           ",
"  ... ++...           ",
"        ...           ",
"         +      @     ",
"         ++     ##    ",
"          +     ###   ",
"         ... #######  ",
"         ... #######@ ",
"         ... #######  ",
"          +     ###   ",
"         ++     ##    ",
"         +      @     ",
"        ...           ",
"  ... ++...           ",
"  ...++ ...           ",
"  ...                 ",
"                      ",
"                      ",
"                      "};
