/* XPM */
static const char * bgmovetool_xpm[] = {
"22 22 17 1",
" 	c None",
".	c #3F3F3F",
"+	c #000000",
"@	c #2C2C2C",
"#	c #878686",
"$	c #15BBD8",
"%	c #05292F",
"&	c #0C0C0C",
"*	c #020F11",
"=	c #171717",
"-	c #074651",
";	c #319609",
">	c #3BBF07",
",	c #0A4D00",
"'	c #0E0E0E",
")	c #191919",
"!	c #020202",
"                      ",
"        .             ",
"       +++            ",
"      +++++           ",
"     .+++++.          ",
"       @+@   #        ",
"   . ++++++++@++++++++",
"  ++ +$%+%$$$++$$$$$$&",
" +++@+%*+*%%%+++$$$$$=",
".+++++++++++++++-$$$$=",
" +++@+%*+*%%%+++$$$$$=",
"  ++ +$%+%$$$++$$$$$$=",
"   . +$%+%$$$-$$;;$$$=",
"     +$%+%$$$$$;>>;$$=",
"    #@+++++-$;;>>>>;;=",
"     ++++++;;>>>>>>>>=",
"     +;+++;>>>>>>>>>>=",
"     +>>,>>>>>>>>>>>>=",
"     +>>>>>>>>>>>>>>>=",
"     +>>>>>>>>>>>>>>>=",
"     +>>>>>>>>>>>>>>>=",
"     +'))))))))))))))!"};
