/* XPM */
static const char * colortool_xpm[] = {
"22 22 187 2",
"  	c None",
". 	c #CAA172",
"+ 	c #AA784C",
"@ 	c #D6AD8D",
"# 	c #A9A9A9",
"$ 	c #A8A8A8",
"% 	c #ACACAC",
"& 	c #DFB479",
"* 	c #E3AF6C",
"= 	c #A66528",
"- 	c #A26840",
"; 	c #A5A5A5",
"> 	c #8C8C8C",
", 	c #8D8D8D",
"' 	c #8E8E8E",
") 	c #8F8F8F",
"! 	c #929292",
"~ 	c #AAAAAA",
"{ 	c #D5A86A",
"] 	c #EDB870",
"^ 	c #D49653",
"/ 	c #6C2B00",
"( 	c #A7A7A7",
"_ 	c #919191",
": 	c #B8B8B8",
"< 	c #EDEDED",
"[ 	c #D7D7D8",
"} 	c #979797",
"| 	c #949494",
"1 	c #AD7F49",
"2 	c #AC763A",
"3 	c #7D4514",
"4 	c #A2A2A2",
"5 	c #314EAC",
"6 	c #DCDCDE",
"7 	c #D4D4D4",
"8 	c #A1A1A0",
"9 	c #80644D",
"0 	c #AEAEAE",
"a 	c #989998",
"b 	c #D6D6D6",
"c 	c #0000AB",
"d 	c #0021E1",
"e 	c #00009C",
"f 	c #002CBA",
"g 	c #BDBDBD",
"h 	c #C8C8C8",
"i 	c #989898",
"j 	c #CDCDCD",
"k 	c #67AD6D",
"l 	c #3CB130",
"m 	c #B1B1B1",
"n 	c #0000A8",
"o 	c #0845EF",
"p 	c #0011E1",
"q 	c #00189F",
"r 	c #C4C4C4",
"s 	c #595959",
"t 	c #999999",
"u 	c #52A754",
"v 	c #51DB25",
"w 	c #4CDB22",
"x 	c #069C00",
"y 	c #ABC8FF",
"z 	c #000083",
"A 	c #000089",
"B 	c #8DA2CB",
"C 	c #ABABAB",
"D 	c #C6A38C",
"E 	c #55483B",
"F 	c #757575",
"G 	c #499E54",
"H 	c #5FDD31",
"I 	c #37ED08",
"J 	c #007B00",
"K 	c #C1C1C1",
"L 	c #D1D1D1",
"M 	c #C0C0C0",
"N 	c #DFB291",
"O 	c #F38531",
"P 	c #A15523",
"Q 	c #959595",
"R 	c #969696",
"S 	c #9E5A5A",
"T 	c #E1E1E1",
"U 	c #228B44",
"V 	c #067736",
"W 	c #BCBCBC",
"X 	c #C7C7C7",
"Y 	c #F28E3A",
"Z 	c #D8661A",
"` 	c #94543C",
" .	c #AFAFAF",
"..	c #4C4E4C",
"+.	c #B4B4B4",
"@.	c #BE443A",
"#.	c #EC1805",
"$.	c #C30000",
"%.	c #EAEAEA",
"&.	c #DADADA",
"*.	c #303030",
"=.	c #B9B9B9",
"-.	c #DABFA2",
";.	c #F9862F",
">.	c #A83800",
",.	c #A6A6A6",
"'.	c #1B1B1B",
").	c #E8E8E8",
"!.	c #C20600",
"~.	c #F41907",
"{.	c #C80000",
"].	c #6B0013",
"^.	c #ADADAD",
"/.	c #2D2D2D",
"(.	c #272727",
"_.	c #A1A1A1",
":.	c #EB9A58",
"<.	c #E16D1B",
"[.	c #954422",
"}.	c #7B7B7B",
"|.	c #A60000",
"1.	c #9C0000",
"2.	c #D5D5D5",
"3.	c #C6C6C6",
"4.	c #9F9F9F",
"5.	c #262625",
"6.	c #898989",
"7.	c #F78D39",
"8.	c #B94600",
"9.	c #828282",
"0.	c #7C7C7C",
"a.	c #141414",
"b.	c #E4E4E4",
"c.	c #D3D3D3",
"d.	c #323030",
"e.	c #B2B2B2",
"f.	c #9C9C9C",
"g.	c #232323",
"h.	c #E4BB9A",
"i.	c #EA7417",
"j.	c #95502D",
"k.	c #6E6E6E",
"l.	c #767676",
"m.	c #838383",
"n.	c #050505",
"o.	c #282727",
"p.	c #9B9B9B",
"q.	c #202020",
"r.	c #878787",
"s.	c #242424",
"t.	c #ED9F5F",
"u.	c #C25200",
"v.	c #545454",
"w.	c #6D6D6D",
"x.	c #6A6A6A",
"y.	c #181818",
"z.	c #7D7D7D",
"A.	c #1E1E1E",
"B.	c #111111",
"C.	c #EF7A16",
"D.	c #9A5C3F",
"E.	c #5C5C5C",
"F.	c #727272",
"G.	c #6B6B6B",
"H.	c #A4A4A4",
"I.	c #8A8A8A",
"J.	c #CEA67F",
"K.	c #DE660D",
"L.	c #555555",
"M.	c #121212",
"N.	c #9D9D9D",
"O.	c #F18939",
"P.	c #7F4E32",
"Q.	c #170F0A",
"R.	c #191919",
"S.	c #222222",
"T.	c #0D0D0D",
"U.	c #101010",
"V.	c #0E0C0B",
"W.	c #2F1708",
"X.	c #B45711",
"Y.	c #362319",
"Z.	c #BBBBBB",
"`.	c #BFBFBF",
" +	c #FFBD89",
".+	c #EBA57D",
"++	c #FFBF88",
"                                    . + @   ",
"                    # $ %           & * = - ",
"                ; > , , ' ) ! ~     { ] ^ / ",
"            ( > _ : < < < < [ } |   1 2 3   ",
"          4 | : < < < < 5 5 < 6 7 8 < 9 0   ",
"        ( a < < < b b c d e f g g < h i j   ",
"      ( , < < k l m b n o p q g < r s s     ",
"    ( t < < u v w x j y z A B C D E F s     ",
"  $ > < < b G H I J K L M ( , N O P Q t s   ",
"  R F < S S T U V F W X g W ( Y Z ` ,  ...  ",
"  F +.@.#.$.S %.&. .*.~ =.( -.;.>.s | ,.'.  ",
"  F ).!.~.{.].b ^./.R (._.$ :.<.[.}.) , '.  ",
"  s < X |.1.2.3.*.4.  F 5.6.7.8.s 9.0.a.6.  ",
"  ..b.c.%.Q d.e.| (.f.g.| h.i.j.k.l.m.n.t   ",
"  '.b h 9.o.p.q.r r.s._ Q t.u.v.w.}.x.y.    ",
"  z.A.B.A.e._.'.,.( Q i z.C.D.E.F.G.q.R     ",
"    | e.e.g A.i H.) I.}.J.K.L.x.M.y.|       ",
"          p.A.( N.f.) m.O.P.Q.R.0 e.        ",
"            ^.S.T.U.V.W.X.Y.r C             ",
"              Z.`.`.g  +.+_.                ",
"                      ++                    ",
"                                            "};
