/* XPM */
static const char * cubetool_xpm[] = {
"22 22 9 1",
" 	c None",
".	c #FF4756",
"+	c #FF0000",
"@	c #FFB5B5",
"#	c #FFFFFF",
"$	c #FFD5D4",
"%	c #FFC9C8",
"&	c #FFFDFD",
"*	c #FFAAAA",
"                      ",
"                      ",
"                      ",
" ..++++++++++++       ",
" .@#######$$$#@.+     ",
" +#%%#&#%%######@.+   ",
" +###*%*%%******@@@.  ",
" +####*%###########+  ",
" +###%%#*##########+  ",
" +###%%##*#########+  ",
" +##%#*###*########+  ",
" +##%#*####*#######+  ",
" +#%##*#####*######+  ",
" +#%##*######*#####+  ",
" +%###*#######*####+  ",
" +%###*########*###+  ",
" .*###*#########*##+  ",
"  +.@#*##########*#+  ",
"    +.@###########@.  ",
"      ++++++++++++..  ",
"                      ",
"                      "};
