/* XPM */
static const char * dragvertextool_xpm[] = {
"22 22 6 1",
" 	c None",
".	c #FE6868",
"+	c #FF0000",
"@	c #FFFFFF",
"#	c #A2282A",
"$	c #FFDAD9",
"                      ",
"                      ",
"           .          ",
"   +++++   ++         ",
"   +++++...+++ @@@@@  ",
"   +++++#####+.$@@@@  ",
"   +++++...+++ @@@@@  ",
"   +++++   ++  @@@@@  ",
"    .#.    .   @@@@@  ",
"    .#.       @  @    ",
"    .#.      @   @    ",
"  .++#++.   @    @    ",
"   ++#++   @     @    ",
"    +++   @      @    ",
"     .   @       @    ",
"    @$@@@      @@@@@  ",
"    @@@@@      @@@@@  ",
"    @@@@@@@@@@@@@@@@  ",
"    @@@@@      @@@@@  ",
"    @@@@@      @@@@@  ",
"                      ",
"                      "};
