/* XPM */
static const char * ellipsetool_xpm[] = {
"22 22 7 1",
" 	c None",
".	c #FF6363",
"+	c #FF0000",
"@	c #FFAAAA",
"#	c #FFDAD9",
"$	c #FFFFFF",
"%	c #FFC9C8",
"                      ",
"           .          ",
"         ++@++        ",
"       ++#$@$#++      ",
"     ++#$$$@$$$#++    ",
"    +#$$$$$@$$$$$#+   ",
"   +@@@@@@@%@@@@@@@+  ",
"   +#$$$$$@$@$$$$$#+  ",
"   +@$$$$@$$$@$$$$@+  ",
"   +@$$$$@$$$@$$$$@+  ",
"   +@#$$@$$$$$@$$#@+  ",
"   +#@$$@$$$$$@$$@#+  ",
"   +$@$@$$$$$$$@$@$+  ",
"   +$@#@$$$$$$$@#@$+  ",
"   +$#@#$$$$$$$#@#$+  ",
"   +@@@@@@@@@@@@@@@+  ",
"    +##@$$$$$$$@##+   ",
"     +.#@$$$$$@#.+    ",
"       +.@$$$@.+      ",
"         ++@++        ",
"           .          ",
"                      "};
