/* XPM */
static const char * extrudetool_xpm[] = {
"22 22 7 1",
" 	c None",
".	c #FFFFFF",
"+	c #ADADAD",
"@	c #7E7E7E",
"#	c #D2D2D2",
"$	c #FF0000",
"%	c #FFAAAA",
"                      ",
"                      ",
"                      ",
" ..............       ",
" .+@@@@@@@+++@@##     ",
" .@##@@###@@@@@@@##   ",
" .@@@#$$$$$$$$$$$$$$  ",
" .@@@@$%...........$  ",
" .@@@#$.%..........$  ",
" .@@@#$..%.........$  ",
" .@@#@$...%........$  ",
" .@@#@$....%.......$  ",
" .@#@@$.....%......$  ",
" .@#@@$......%.....$  ",
" .+@@@$.......%....$  ",
" .+@@@$........%...$  ",
" .@@@@$.........%..$  ",
"  ##@@$..........%.$  ",
"    ##$...........%$  ",
"      $$$$$$$$$$$$$$  ",
"                      ",
"                      "};
