/* XPM */
static const char * loop_xpm[] = {
"17 17 5 1",
" 	c None",
".	c #3F3F3F",
"+	c #000000",
"@	c #7F7F7F",
"#	c #252525",
"      .          ",
"      ++         ",
"   @#++++ .+#@   ",
"  #++++++. +++#  ",
" #+++++++ .#+++# ",
"@+++@ ++    @+++@",
"#++@  .      @++#",
"++#           #++",
"++#           #++",
"++#           #++",
"#++@      .  @++#",
"@+++@    ++ @+++@",
" #+++#. +++++++# ",
"  #+++ .++++++#  ",
"   @#+. ++++#@   ",
"         ++      ",
"          .      "};
