/* XPM */
static const char * movetool_xpm[] = {
"22 22 3 1",
" 	c None",
".	c #3F3F3F",
"+	c #000000",
"          .           ",
"         +++          ",
"        +++++         ",
"       +++++++        ",
"      .+++++++.       ",
"         +++          ",
"    .    +++    .     ",
"   ++    +++    ++    ",
"  +++    +++    +++   ",
" +++++++++++++++++++  ",
".+++++++++++++++++++. ",
" +++++++++++++++++++  ",
"  +++    +++    +++   ",
"   ++    +++    ++    ",
"    .    +++    .     ",
"         +++          ",
"      .+++++++.       ",
"       +++++++        ",
"        +++++         ",
"         +++          ",
"          .           ",
"                      "};
