/* XPM */
static const char * pause_xpm[] = {
"17 16 2 1",
" 	c None",
".	c #000000",
"                 ",
" ......   ...... ",
" ......   ...... ",
" ......   ...... ",
" ......   ...... ",
" ......   ...... ",
" ......   ...... ",
" ......   ...... ",
" ......   ...... ",
" ......   ...... ",
" ......   ...... ",
" ......   ...... ",
" ......   ...... ",
" ......   ...... ",
" ......   ...... ",
" ......   ...... "};
