/* XPM */
static const char * rectangletool_xpm[] = {
"22 22 4 1",
" 	c None",
".	c #FF0000",
"+	c #FFAAAA",
"@	c #FFFFFF",
"                      ",
"                      ",
"                      ",
"                      ",
"    ..............    ",
"    .+@@@@@@@@@@@.    ",
"    .@+@@@@@@@@@@.    ",
"    .@@+@@@@@@@@@.    ",
"    .@@@+@@@@@@@@.    ",
"    .@@@@+@@@@@@@.    ",
"    .@@@@@+@@@@@@.    ",
"    .@@@@@@+@@@@@.    ",
"    .@@@@@@@+@@@@.    ",
"    .@@@@@@@@+@@@.    ",
"    .@@@@@@@@@+@@.    ",
"    .@@@@@@@@@@+@.    ",
"    .@@@@@@@@@@@+.    ",
"    ..............    ",
"                      ",
"                      ",
"                      ",
"                      "};
