/* XPM */
static const char * rotatetool_xpm[] = {
"22 22 5 1",
" 	c None",
".	c #3F3F3F",
"+	c #000000",
"@	c #7F7F7F",
"#	c #252525",
"             .        ",
"             ++       ",
"             +++      ",
"       @#++++++++     ",
"      #++++++++++.    ",
"     #+++++++++++     ",
"    @+++@    +++      ",
"    #++@     ++       ",
"    ++#      .        ",
"    ++#               ",
"    ++#               ",
"    ++#               ",
"    ++#               ",
"    #++@              ",
"    @+++@             ",
"     #+++######.      ",
"      #++++++++.      ",
"       @#++++++.      ",
"                      ",
"                      ",
"                      ",
"                      "};
