/* XPM */
static const char * selectpointtool_xpm[] = {
"22 22 9 1",
" 	c None",
".	c #000000",
"+	c #FFFFFF",
"@	c #00FF00",
"#	c #0A4D00",
"$	c #9F9F9F",
"%	c #0000FF",
"&	c #FF0000",
"*	c #850016",
"..  ..  ..  .         ",
"            .         ",
"                      ",
".                     ",
".           .         ",
"          + .         ",
"         +@+          ",
".       +@+@+         ",
".      +@+++#+        ",
"      +@++++$@+++++   ",
"     +%%%%%%%%%%%%%+  ",
".     +&+++++&+++++   ",
".  ..  $*++$*+        ",
"        +&+&+         ",
"         +&+          ",
"          +           ",
"                      ",
"                      ",
"                      ",
"                      ",
"                      ",
"                      "};
