/* XPM */
static const char * selectvertextool_xpm[] = {
"22 22 5 1",
" 	c None",
".	c #000000",
"+	c #FF0000",
"@	c #FFFFFF",
"#	c #9F9F9F",
"..  ..  ..  .         ",
"            .         ",
"                      ",
".                     ",
".   +++++   .  @@@@@  ",
"    +++++   .  @@@@@  ",
"    +++++@@@@@@@@@@@  ",
".   +++++      @@@@@  ",
".   +++++   .  @@@@@  ",
"      @     . @  @    ",
"      @      @   @    ",
".     @     @    @    ",
".  .. @..  #.    @    ",
"      @   @      @    ",
"      @  @       @    ",
"    @@@@@      @@@@@  ",
"    @@@@@      @@@@@  ",
"    @@@@@@@@@@@@@@@@  ",
"    @@@@@      @@@@@  ",
"    @@@@@      @@@@@  ",
"                      ",
"                      "};
