/* XPM */
static char const * selectconnectedtool_xpm[] = {
"22 22 5 1",
" 	c None",
".	c #000000",
"+	c #FF0000",
"@	c #850016",
"#	c #FFFFFF",
"..  ..  ..  .         ",
"            .         ",
"                      ",
".                     ",
".   +++++  +@+++      ",
"    +++++  +@+++      ",
"    ++++++++++++      ",
".   +++++  +++++      ",
".   +++++  +@+++      ",
"      +     @   ##### ",
"    +++++  +    ##### ",
".   +++++ +    ###### ",
".  .@++@@+ .. # ##### ",
"    +++++    #  ##### ",
"    +++++   #     #   ",
"           #      #   ",
"         #####  ##### ",
"         #####  ##### ",
"         ############ ",
"         #####  ##### ",
"         #####  ##### ",
"                      "};
