/* XPM */
static const char * selectbonetool_xpm[] = {
"22 22 6 1",
" 	c None",
".	c #000000",
"+	c #FF0000",
"@	c #FFFFFF",
"#	c #850016",
"$	c #9F9F9F",
"..  ..  ..  .         ",
"            .         ",
"                      ",
".                     ",
".           .         ",
"            .         ",
"     +++        +++   ",
".   +@@@+      +@@@+  ",
".   +@@@@+++#++@@@@+  ",
"    +@@@@@@@$@@@@@@+  ",
"     +@@@@@@@@@@@@+   ",
".   +@@@@@@@@@@@@@@+  ",
".  .#@@$$++##++@@@@+  ",
"    +@@@+      +@@@+  ",
"     +++        +++   ",
"                      ",
"                      ",
"                      ",
"                      ",
"                      ",
"                      ",
"                      "};
