/* XPM */
static const char * torustool_xpm[] = {
"22 22 6 1",
" 	c None",
".	c #FF7C7C",
"+	c #FF1111",
"@	c #FFDCDC",
"#	c #FFB0B0",
"$	c #FFFFFF",
"                      ",
"        .++++.        ",
"      .++@##@++.      ",
"    .++$$$##$$$++.    ",
"   .+@$$@#..#@$$@+.   ",
"   +@.@##$##$##@.@+   ",
"  .+$@.@$$##$$@.@$+.  ",
"  +$$#@.@++++@.@#$$+  ",
" .+$@#$@+.  .+@$#@$+. ",
" +@$#$$+.    .+$$#$@+ ",
" +##.##+      +##.##+ ",
" +##.##+      +##.##+ ",
" +@$#$$+.    .+$$#$@+ ",
" .+$@#$@+.  .+@$#@$+. ",
"  +$$#@.@++++@.@#$$+  ",
"  .+$@.@$$##$$@.@$+.  ",
"   +@.@##$##$##@.@+   ",
"   .+@$$@#..#@$$@+.   ",
"    .++$$$##$$$++.    ",
"      .++@##@++.      ",
"        .++++.        ",
"                      "};
