/* XPM */
static const char * zoomout_xpm[] = {
"22 20 7 1",
" 	c None",
".	c #989898",
"+	c #282828",
"@	c #000000",
"#	c #B1B1B1",
"$	c #0F0F0F",
"%	c #424242",
"                      ",
"     .+@@+.           ",
"   #+@@@@@@+#         ",
"   +@$.  .$@+         ",
"  .@$#    #$@.        ",
"  +@.      .@+        ",
"  @@ %@@@@% @@        ",
"  @@ %@@@@% @@        ",
"  +@.      .@+        ",
"  .@$#    #$$         ",
"   +@$.  .$$ @+#      ",
"   #+@@@@@$  #$$#     ",
"     .+@@+ @# #$$#    ",
"           +$# #$$#   ",
"           #$$# #$$#  ",
"            #$$# #$$# ",
"             #$$# #$+ ",
"              #$$#  @ ",
"               #$$ $+ ",
"                #+@+# "};
