/* XPM */
static const char * zoomin_xpm[] = {
"22 20 8 1",
" 	c None",
".	c #989898",
"+	c #282828",
"@	c #000000",
"#	c #B1B1B1",
"$	c #0F0F0F",
"%	c #424242",
"&	c #7E7E7E",
"                      ",
"     .+@@+.           ",
"   #+@@@@@@+#         ",
"   +@$.  .$@+         ",
"  .@$# %% #$@.        ",
"  +@. &@@& .@+        ",
"  @@ %@@@@% @@        ",
"  @@ %@@@@% @@        ",
"  +@. &@@& .@+        ",
"  .@$# %% #$$         ",
"   +@$.  .$$ @+#      ",
"   #+@@@@@$  #$$#     ",
"     .+@@+ @# #$$#    ",
"           +$# #$$#   ",
"           #$$# #$$#  ",
"            #$$# #$$# ",
"             #$$# #$+ ",
"              #$$#  @ ",
"               #$$ $+ ",
"                #+@+# "};
